<?xml version="1.0" standalone="no"?>
<!DOCTYPE svg PUBLIC "-//W3C//DTD SVG 20010904//EN"
 "http://www.w3.org/TR/2001/REC-SVG-20010904/DTD/svg10.dtd">
<svg version="1.0" xmlns="http://www.w3.org/2000/svg"
 width="32.000000pt" height="32.000000pt" viewBox="0 0 32.000000 32.000000"
 preserveAspectRatio="xMidYMid meet">

<g transform="translate(0.000000,32.000000) scale(0.100000,-0.100000)"
fill="#000000" stroke="none">
<path d="M69 209 l-24 -20 26 15 c14 9 29 13 34 9 4 -5 5 -2 1 5 -9 16 -10 16
-37 -9z"/>
<path d="M156 199 c-14 -17 -26 -36 -26 -42 0 -7 9 2 19 20 11 17 28 36 38 42
10 6 13 11 6 11 -6 0 -23 -14 -37 -31z"/>
<path d="M177 119 c-19 -32 -35 -49 -48 -49 -10 0 -19 -4 -19 -8 0 -4 17 -6
38 -3 20 2 31 6 24 8 -9 4 -6 17 13 50 15 24 25 46 23 48 -2 2 -16 -18 -31
-46z"/>
<path d="M85 140 c-3 -6 1 -7 9 -4 18 7 21 14 7 14 -6 0 -13 -4 -16 -10z"/>
<path d="M55 120 c-3 -5 -1 -10 4 -10 6 0 11 5 11 10 0 6 -2 10 -4 10 -3 0 -8
-4 -11 -10z"/>
<path d="M30 85 c-7 -9 -11 -17 -9 -20 3 -2 10 5 17 15 14 24 10 26 -8 5z"/>
<path d="M46 55 c-11 -8 -15 -15 -9 -15 6 0 16 7 23 15 16 19 11 19 -14 0z"/>
<path d="M208 53 c6 -2 18 -2 25 0 6 3 1 5 -13 5 -14 0 -19 -2 -12 -5z"/>
</g>
</svg>
